# Blender v2.77 (sub 0) OBJ File: ''
# www.blender.org
mtllib sphere.mtl
o sphere
v -0.059017 1.059020 0.500000
v 0.250000 1.250000 0.000000
v -0.275731 1.100650 0.000000
v 0.559017 1.059020 0.500000
v 0.775731 1.100650 0.000000
v 0.250000 0.775731 0.850651
v 1.059020 0.750000 0.309017
v 0.750000 0.559017 0.809017
v 1.100650 0.250000 0.525731
v 1.059020 0.750000 -0.309017
v 1.250000 0.250000 0.000000
v 1.100650 0.250000 -0.525731
v 0.559017 1.059020 -0.500000
v 0.750000 0.559017 -0.809017
v 0.250000 0.775731 -0.850651
v -0.059017 1.059020 -0.500000
v -0.250000 0.559017 -0.809017
v -0.559017 0.750000 -0.309017
v -0.600651 0.250000 -0.525731
v -0.750000 0.250000 0.000000
v -0.559017 0.750000 0.309017
v -0.600651 0.250000 0.525731
v -0.250000 0.559017 0.809017
v 0.559017 -0.559017 0.500000
v 0.250000 -0.750000 -0.000000
v 0.775731 -0.600651 -0.000000
v -0.059017 -0.559017 0.500000
v -0.275731 -0.600651 -0.000000
v 0.250000 -0.275731 0.850651
v 0.750000 -0.059017 0.809017
v 1.059020 -0.250000 0.309017
v 1.059020 -0.250000 -0.309017
v 0.750000 -0.059017 -0.809017
v 0.559017 -0.559017 -0.500000
v 0.250000 -0.275731 -0.850651
v -0.059017 -0.559017 -0.500000
v -0.250000 -0.059017 -0.809017
v -0.559017 -0.250000 -0.309017
v -0.559017 -0.250000 0.309017
v -0.250000 -0.059017 0.809017
v 0.250000 0.250000 1.000000
v 0.250000 0.250000 -1.000000
vt 0.2500 0.5000
vt 0.5000 1.0000
vt 0.0000 1.0000
vt 0.7500 0.5000
vt 1.0000 1.0000
vt 0.5000 0.0000
vt 0.2500 0.5000
vt 0.5000 1.0000
vt 0.0000 1.0000
vt 0.7500 0.5000
vt 1.0000 1.0000
vt 0.2500 0.5000
vt 0.5000 1.0000
vt 0.7500 0.5000
vt 1.0000 1.0000
vt 0.5000 0.0000
vt 0.2500 0.5000
vt 0.5000 1.0000
vt 0.7500 0.5000
vt 1.0000 1.0000
vt 0.5000 0.0000
vt 0.2500 0.5000
vt 0.7500 0.5000
vt 1.0000 1.0000
vt 0.5000 0.0000
vt 0.2500 0.5000
vt 0.5000 1.0000
vt 0.0000 1.0000
vt 0.7500 0.5000
vt 0.5000 0.0000
vt 0.2500 0.5000
vt 0.5000 1.0000
vt 0.0000 1.0000
vt 0.7500 0.5000
vt 0.5000 0.0000
vt 0.2500 0.5000
vt 0.5000 1.0000
vt 0.7500 0.5000
vt 1.0000 1.0000
vt 0.2500 0.5000
vt 0.5000 1.0000
vt 0.0000 1.0000
vt 0.7500 0.5000
vt 1.0000 1.0000
vt 0.5000 0.0000
vt 0.2500 0.5000
vt 0.5000 1.0000
vt 0.0000 1.0000
vt 0.7500 0.5000
vt 1.0000 1.0000
vt 0.2500 0.5000
vt 0.5000 1.0000
vt 0.7500 0.5000
vt 0.5000 0.0000
vt 0.2500 0.5000
vt 0.5000 1.0000
vt 0.0000 1.0000
vt 0.7500 0.5000
vt 1.0000 1.0000
vt 0.2500 0.5000
vt 0.5000 1.0000
vt 0.0000 1.0000
vt 0.7500 0.5000
vt 0.2500 0.5000
vt 0.5000 1.0000
vt 0.7500 0.5000
vt 1.0000 1.0000
vt 0.5000 0.0000
vt 0.2500 0.5000
vt 0.5000 1.0000
vt 0.7500 0.5000
vt 1.0000 1.0000
vt 0.2500 0.5000
vt 0.5000 1.0000
vt 0.0000 1.0000
vt 1.0000 1.0000
vt 0.2500 0.5000
vt 0.0000 1.0000
vt 0.2500 0.5000
vt 0.5000 1.0000
vt 0.7500 0.5000
vt 0.2500 0.5000
vt 0.5000 1.0000
vt 0.7500 0.5000
vt 0.2500 0.5000
vt 0.5000 1.0000
vt 0.7500 0.5000
vt 0.5000 0.0000
vn -0.2680 0.9435 0.1947
vn 0.2680 0.9435 0.1947
vn 0.0000 0.9342 0.3568
vn 0.0000 0.7779 0.6284
vn 0.5831 0.7488 0.3151
vn 0.7488 0.3151 0.5831
vn 0.5773 0.5773 0.5774
vn 0.3151 0.5831 0.7488
vn 0.7779 0.6284 0.0000
vn 0.9435 0.1947 -0.2680
vn 0.9342 0.3568 0.0000
vn 0.9435 0.1947 0.2680
vn 0.5831 0.7488 -0.3151
vn 0.3151 0.5831 -0.7488
vn 0.5773 0.5773 -0.5774
vn 0.7488 0.3151 -0.5831
vn 0.2680 0.9435 -0.1947
vn -0.2680 0.9435 -0.1947
vn 0.0000 0.9342 -0.3568
vn 0.0000 0.7779 -0.6284
vn -0.3151 0.5831 -0.7488
vn -0.5831 0.7488 -0.3151
vn -0.5774 0.5773 -0.5774
vn -0.7488 0.3151 -0.5831
vn -0.9435 0.1947 -0.2680
vn -0.7779 0.6284 0.0000
vn -0.9342 0.3568 0.0000
vn -0.9435 0.1947 0.2680
vn -0.5831 0.7488 0.3151
vn -0.3151 0.5831 0.7488
vn -0.5774 0.5773 0.5774
vn -0.7488 0.3151 0.5831
vn 0.2680 -0.9435 0.1947
vn -0.2680 -0.9435 0.1947
vn 0.0000 -0.9342 0.3568
vn 0.0000 -0.7779 0.6284
vn 0.7488 -0.3151 0.5831
vn 0.5831 -0.7488 0.3151
vn 0.5773 -0.5774 0.5774
vn 0.3151 -0.5831 0.7488
vn 0.9435 -0.1947 0.2680
vn 0.9435 -0.1947 -0.2680
vn 0.9342 -0.3568 -0.0000
vn 0.7779 -0.6284 -0.0000
vn 0.7488 -0.3151 -0.5831
vn 0.3151 -0.5831 -0.7488
vn 0.5773 -0.5774 -0.5774
vn 0.5831 -0.7488 -0.3151
vn 0.0000 -0.7779 -0.6284
vn -0.2680 -0.9435 -0.1947
vn 0.0000 -0.9342 -0.3568
vn 0.2680 -0.9435 -0.1947
vn -0.3151 -0.5831 -0.7488
vn -0.7488 -0.3151 -0.5831
vn -0.5774 -0.5774 -0.5774
vn -0.5831 -0.7488 -0.3151
vn -0.9435 -0.1947 -0.2680
vn -0.9435 -0.1947 0.2680
vn -0.9342 -0.3568 -0.0000
vn -0.7779 -0.6284 -0.0000
vn -0.7488 -0.3151 0.5831
vn -0.3151 -0.5831 0.7488
vn -0.5774 -0.5774 0.5774
vn -0.5831 -0.7488 0.3151
vn -0.1947 -0.2680 0.9435
vn -0.6284 -0.0000 0.7779
vn -0.3568 -0.0000 0.9342
vn -0.1947 0.2680 0.9435
vn 0.6284 0.0000 0.7779
vn 0.1947 -0.2680 0.9435
vn 0.3568 -0.0000 0.9342
vn 0.1947 0.2680 0.9435
vn 0.1947 0.2680 -0.9435
vn 0.1947 -0.2680 -0.9435
vn 0.3568 0.0000 -0.9342
vn 0.6284 0.0000 -0.7779
vn -0.1947 0.2680 -0.9435
vn -0.6284 0.0000 -0.7779
vn -0.3568 0.0000 -0.9342
vn -0.1947 -0.2680 -0.9435
usemtl None
s off
f 1/1/1 2/2/1 3/3/1
f 4/4/2 5/5/2 2/2/2
f 2/2/3 1/1/3 4/4/3
f 6/6/4 4/4/4 1/1/4
f 4/7/5 7/8/5 5/9/5
f 8/10/6 9/11/6 7/8/6
f 7/8/7 4/7/7 8/10/7
f 6/6/8 8/10/8 4/7/8
f 7/12/9 10/13/9 5/9/9
f 11/14/10 12/15/10 10/13/10
f 10/13/11 7/12/11 11/14/11
f 9/16/12 11/14/12 7/12/12
f 10/17/13 13/18/13 5/9/13
f 14/19/14 15/20/14 13/18/14
f 13/18/15 10/17/15 14/19/15
f 12/21/16 14/19/16 10/17/16
f 13/22/17 2/2/17 5/9/17
f 16/23/18 3/24/18 2/2/18
f 2/2/19 13/22/19 16/23/19
f 15/25/20 16/23/20 13/22/20
f 17/26/21 16/27/21 15/28/21
f 18/29/22 3/24/22 16/27/22
f 16/27/23 17/26/23 18/29/23
f 19/30/24 18/29/24 17/26/24
f 20/31/25 18/32/25 19/33/25
f 21/34/26 3/24/26 18/32/26
f 18/32/27 20/31/27 21/34/27
f 22/35/28 21/34/28 20/31/28
f 21/36/29 1/37/29 3/3/29
f 23/38/30 6/39/30 1/37/30
f 1/37/31 21/36/31 23/38/31
f 22/35/32 23/38/32 21/36/32
f 24/40/33 25/41/33 26/42/33
f 27/43/34 28/44/34 25/41/34
f 25/41/35 24/40/35 27/43/35
f 29/45/36 27/43/36 24/40/36
f 30/46/37 31/47/37 9/48/37
f 24/49/38 26/50/38 31/47/38
f 31/47/39 30/46/39 24/49/39
f 29/45/40 24/49/40 30/46/40
f 31/51/41 11/52/41 9/48/41
f 32/53/42 12/15/42 11/52/42
f 11/52/43 31/51/43 32/53/43
f 26/54/44 32/53/44 31/51/44
f 32/55/45 33/56/45 12/57/45
f 34/58/46 35/59/46 33/56/46
f 33/56/47 32/55/47 34/58/47
f 26/54/48 34/58/48 32/55/48
f 34/60/49 36/61/49 35/62/49
f 25/63/50 28/44/50 36/61/50
f 36/61/51 34/60/51 25/63/51
f 26/54/52 25/63/52 34/60/52
f 36/64/53 37/65/53 35/62/53
f 38/66/54 19/67/54 37/65/54
f 37/65/55 36/64/55 38/66/55
f 28/68/56 38/66/56 36/64/56
f 38/69/57 20/70/57 19/33/57
f 39/71/58 22/72/58 20/70/58
f 20/70/59 38/69/59 39/71/59
f 28/68/60 39/71/60 38/69/60
f 39/73/61 40/74/61 22/75/61
f 27/43/62 29/76/62 40/74/62
f 40/74/63 39/73/63 27/43/63
f 28/68/64 27/43/64 39/73/64
f 41/77/65 40/74/65 29/78/65
f 23/38/66 22/72/66 40/74/66
f 40/74/67 41/77/67 23/38/67
f 6/6/68 23/38/68 41/77/68
f 8/79/69 30/80/69 9/48/69
f 41/81/70 29/76/70 30/80/70
f 30/80/71 8/79/71 41/81/71
f 6/6/72 41/81/72 8/79/72
f 14/82/73 42/83/73 15/28/73
f 33/84/74 35/59/74 42/83/74
f 42/83/75 14/82/75 33/84/75
f 12/21/76 33/84/76 14/82/76
f 42/85/77 17/86/77 15/28/77
f 37/87/78 19/67/78 17/86/78
f 17/86/79 42/85/79 37/87/79
f 35/88/80 37/87/80 42/85/80
