# Blender v2.77 (sub 0) OBJ File: ''
# www.blender.org
mtllib sphere.mtl
o sphere
v 0.250000 0.775731 0.850651
v 0.775731 1.100650 0.000000
v -0.275731 1.100650 0.000000
v 1.100650 0.250000 0.525731
v 1.100650 0.250000 -0.525731
v 0.250000 0.775731 -0.850651
v -0.600651 0.250000 -0.525731
v -0.600651 0.250000 0.525731
v 0.250000 -0.275731 0.850651
v -0.275731 -0.600651 -0.000000
v 0.775731 -0.600651 -0.000000
v 0.250000 -0.275731 -0.850651
vt 0.5000 0.0000
vt 1.0000 1.0000
vt 0.0000 1.0000
vt 1.0000 1.0000
vt 0.0000 1.0000
vt 0.5000 0.0000
vt 1.0000 1.0000
vt 0.5000 0.0000
vt 1.0000 1.0000
vt 0.5000 0.0000
vt 1.0000 1.0000
vt 0.5000 0.0000
vt 0.0000 1.0000
vt 0.5000 0.0000
vt 0.0000 1.0000
vt 1.0000 1.0000
vt 0.5000 0.0000
vt 1.0000 1.0000
vt 0.0000 1.0000
vt 1.0000 1.0000
vt 0.0000 1.0000
vt 0.5000 0.0000
vt 1.0000 1.0000
vt 0.0000 1.0000
vt 0.0000 1.0000
vt 0.5000 0.0000
vt 1.0000 1.0000
vt 1.0000 1.0000
vt 1.0000 1.0000
vt 0.0000 1.0000
vt 0.0000 1.0000
vt 0.5000 0.0000
vn 0.0000 0.9342 0.3568
vn 0.5774 0.5774 0.5773
vn 0.9342 0.3568 0.0000
vn 0.5774 0.5774 -0.5773
vn 0.0000 0.9342 -0.3568
vn -0.5774 0.5774 -0.5773
vn -0.9342 0.3568 0.0000
vn -0.5774 0.5774 0.5773
vn 0.0000 -0.9342 0.3568
vn 0.5774 -0.5773 0.5774
vn 0.9342 -0.3568 -0.0000
vn 0.5774 -0.5773 -0.5774
vn 0.0000 -0.9342 -0.3568
vn -0.5774 -0.5774 -0.5774
vn -0.9342 -0.3568 -0.0000
vn -0.5774 -0.5774 0.5774
vn -0.3568 -0.0000 0.9342
vn 0.3568 -0.0000 0.9342
vn 0.3568 0.0000 -0.9342
vn -0.3568 0.0000 -0.9342
usemtl None
s off
f 1/1/1 2/2/1 3/3/1
f 1/1/2 4/4/2 2/5/2
f 4/6/3 5/7/3 2/5/3
f 5/8/4 6/9/4 2/5/4
f 6/10/5 3/11/5 2/5/5
f 7/12/6 3/11/6 6/13/6
f 8/14/7 3/11/7 7/15/7
f 8/14/8 1/16/8 3/3/8
f 9/17/9 10/18/9 11/19/9
f 9/17/10 11/20/10 4/21/10
f 11/22/11 5/7/11 4/21/11
f 11/22/12 12/23/12 5/24/12
f 11/22/13 10/18/13 12/25/13
f 10/26/14 7/27/14 12/25/14
f 10/26/15 8/28/15 7/15/15
f 10/26/16 9/29/16 8/30/16
f 1/1/17 8/28/17 9/31/17
f 1/1/18 9/29/18 4/21/18
f 5/8/19 12/23/19 6/13/19
f 12/32/20 7/27/20 6/13/20
